<svg xmlns="http://www.w3.org/2000/svg" width="640" height="360" viewBox="0 0 640 360" role="img" aria-labelledby="title desc">
  <title id="title">Portfolio Construction card</title>
  <desc id="desc">singular, multifaceted, varied views</desc>
  <rect width="640" height="360" fill="#121212"/>
  <rect x="24" y="24" width="592" height="312" rx="14" fill="#1E1E1E" stroke="#FFFFFF" stroke-opacity=".15"/>
  <rect x="52" y="52" width="82" height="8" rx="4" fill="#BB86FC"/>
  <text x="52" y="94" fill="#BB86FC" font-family="Arial, Helvetica, sans-serif" font-size="14" font-weight="700" letter-spacing="2">04 · FINANCIAL</text>
  <g><g fill="none" stroke-linecap="round" stroke-linejoin="round">
  <line x1="86" y1="200" x2="552" y2="200" stroke="#FFFFFF" stroke-opacity=".28" stroke-width="3"/><line x1="86" y1="200" x2="86" y2="112" stroke="#FFFFFF" stroke-opacity=".28" stroke-width="3"/>
  <path d="M112 186 C210 186 280 170 344 146 C412 121 478 111 544 112" stroke="#03DAC6" stroke-width="5"/>
  <circle cx="148" cy="182" r="9" fill="#BB86FC"/><circle cx="236" cy="169" r="13" fill="#03DAC6"/><circle cx="328" cy="151" r="10" fill="#BB86FC"/><circle cx="424" cy="124" r="15" fill="#03DAC6"/><circle cx="518" cy="113" r="11" fill="#BB86FC"/>
  <path d="M296 200 L344 146 L392 200 Z" fill="#BB86FC" fill-opacity=".12" stroke="#BB86FC" stroke-dasharray="6 6" stroke-width="3"/>
</g></g>
  <text x="52" y="250" fill="#FFFFFF" fill-opacity=".90" font-family="Arial, Helvetica, sans-serif" font-size="28" font-weight="600">Portfolio Construction</text>
  <text x="52" y="322" fill="#FFFFFF" fill-opacity=".60" font-family="Arial, Helvetica, sans-serif" font-size="15">singular, multifaceted, varied views</text>
</svg>
