<svg xmlns="http://www.w3.org/2000/svg" width="640" height="360" viewBox="0 0 640 360" role="img" aria-labelledby="title desc">
  <title id="title">Performance Measurement card</title>
  <desc id="desc">attribution, grids, linked views</desc>
  <rect width="640" height="360" fill="#121212"/>
  <rect x="24" y="24" width="592" height="312" rx="14" fill="#1E1E1E" stroke="#FFFFFF" stroke-opacity=".15"/>
  <rect x="52" y="52" width="82" height="8" rx="4" fill="#BB86FC"/>
  <text x="52" y="94" fill="#BB86FC" font-family="Arial, Helvetica, sans-serif" font-size="14" font-weight="700" letter-spacing="2">06 · FINANCIAL</text>
  <g><g stroke-linejoin="round">
  <rect x="78" y="132" width="58" height="70" rx="5" fill="#BB86FC"/><line x1="136" y1="132" x2="170" y2="132" stroke="#FFFFFF" stroke-opacity=".35" stroke-dasharray="5 5" stroke-width="3"/>
  <rect x="170" y="112" width="58" height="20" rx="4" fill="#03DAC6"/><line x1="228" y1="112" x2="262" y2="112" stroke="#FFFFFF" stroke-opacity=".35" stroke-dasharray="5 5" stroke-width="3"/>
  <rect x="262" y="112" width="58" height="34" rx="4" fill="#CF6679"/><line x1="320" y1="146" x2="354" y2="146" stroke="#FFFFFF" stroke-opacity=".35" stroke-dasharray="5 5" stroke-width="3"/>
  <rect x="354" y="122" width="58" height="24" rx="4" fill="#03DAC6"/><line x1="412" y1="122" x2="446" y2="122" stroke="#FFFFFF" stroke-opacity=".35" stroke-dasharray="5 5" stroke-width="3"/>
  <rect x="446" y="122" width="72" height="80" rx="5" fill="#BB86FC"/>
</g></g>
  <text x="52" y="250" fill="#FFFFFF" fill-opacity=".90" font-family="Arial, Helvetica, sans-serif" font-size="28" font-weight="600">Performance Measurement</text>
  <text x="52" y="322" fill="#FFFFFF" fill-opacity=".60" font-family="Arial, Helvetica, sans-serif" font-size="15">attribution, grids, linked views</text>
</svg>
