<svg xmlns="http://www.w3.org/2000/svg" width="640" height="360" viewBox="0 0 640 360" role="img" aria-labelledby="title desc">
  <title id="title">Dynamic Graphs card</title>
  <desc id="desc">small multiples and time bars</desc>
  <rect width="640" height="360" fill="#121212"/>
  <rect x="24" y="24" width="592" height="312" rx="14" fill="#1E1E1E" stroke="#FFFFFF" stroke-opacity=".15"/>
  <rect x="52" y="52" width="82" height="8" rx="4" fill="#03DAC6"/>
  <text x="52" y="94" fill="#03DAC6" font-family="Arial, Helvetica, sans-serif" font-size="14" font-weight="700" letter-spacing="2">21 · GRAPH</text>
  <g><rect x="70" y="112" width="142" height="92" rx="7" fill="#FFFFFF" fill-opacity=".04" stroke="#FFFFFF" stroke-opacity=".18"/><line x1="100" y1="176" x2="140" y2="130" stroke="#03DAC6" stroke-width="3"/><line x1="140" y1="130" x2="182" y2="172" stroke="#BB86FC" stroke-width="4"/><circle cx="100" cy="176" r="9" fill="#BB86FC"/><circle cx="140" cy="130" r="11" fill="#03DAC6"/><circle cx="182" cy="172" r="9" fill="#BB86FC"/><rect x="252" y="112" width="142" height="92" rx="7" fill="#FFFFFF" fill-opacity=".04" stroke="#FFFFFF" stroke-opacity=".18"/><line x1="282" y1="171" x2="322" y2="134" stroke="#03DAC6" stroke-width="4"/><line x1="322" y1="134" x2="364" y2="169" stroke="#BB86FC" stroke-width="4"/><circle cx="282" cy="171" r="9" fill="#BB86FC"/><circle cx="322" cy="134" r="12" fill="#03DAC6"/><circle cx="364" cy="169" r="9" fill="#BB86FC"/><rect x="434" y="112" width="142" height="92" rx="7" fill="#FFFFFF" fill-opacity=".04" stroke="#FFFFFF" stroke-opacity=".18"/><line x1="464" y1="166" x2="504" y2="138" stroke="#03DAC6" stroke-width="5"/><line x1="504" y1="138" x2="546" y2="166" stroke="#BB86FC" stroke-width="4"/><circle cx="464" cy="166" r="9" fill="#BB86FC"/><circle cx="504" cy="138" r="13" fill="#03DAC6"/><circle cx="546" cy="166" r="9" fill="#BB86FC"/><path d="M218 158 H244 M400 158 H426" stroke="#FFFFFF" stroke-opacity=".35" stroke-width="3" stroke-dasharray="5 5"/></g>
  <text x="52" y="250" fill="#FFFFFF" fill-opacity=".90" font-family="Arial, Helvetica, sans-serif" font-size="28" font-weight="600">Dynamic Graphs</text>
  <text x="52" y="322" fill="#FFFFFF" fill-opacity=".60" font-family="Arial, Helvetica, sans-serif" font-size="15">small multiples and time bars</text>
</svg>
