<svg xmlns="http://www.w3.org/2000/svg" width="640" height="360" viewBox="0 0 640 360" role="img" aria-labelledby="title desc">
  <title id="title">Performance Waterfall card</title>
  <desc id="desc">ordered cumulative decomposition</desc>
  <rect width="640" height="360" fill="#121212"/>
  <rect x="24" y="24" width="592" height="312" rx="14" fill="#1E1E1E" stroke="#FFFFFF" stroke-opacity=".15"/>
  <rect x="52" y="52" width="82" height="8" rx="4" fill="#03DAC6"/>
  <text x="52" y="94" fill="#03DAC6" font-family="Arial, Helvetica, sans-serif" font-size="14" font-weight="700" letter-spacing="2">EX · EXAMPLE</text>
  <g><g stroke-linejoin="round">
  <rect x="74" y="126" width="58" height="78" rx="5" fill="#BB86FC"/><line x1="132" y1="126" x2="164" y2="126" stroke="#FFFFFF" stroke-opacity=".35" stroke-width="3" stroke-dasharray="5 5"/><rect x="164" y="106" width="58" height="20" rx="4" fill="#03DAC6"/><line x1="222" y1="106" x2="254" y2="106" stroke="#FFFFFF" stroke-opacity=".35" stroke-width="3" stroke-dasharray="5 5"/><rect x="254" y="106" width="58" height="28" rx="4" fill="#CF6679"/><line x1="312" y1="134" x2="344" y2="134" stroke="#FFFFFF" stroke-opacity=".35" stroke-width="3" stroke-dasharray="5 5"/><rect x="344" y="118" width="58" height="16" rx="4" fill="#03DAC6"/><line x1="402" y1="118" x2="434" y2="118" stroke="#FFFFFF" stroke-opacity=".35" stroke-width="3" stroke-dasharray="5 5"/><rect x="434" y="118" width="82" height="86" rx="5" fill="#BB86FC"/>
  <line x1="70" y1="204" x2="524" y2="204" stroke="#FFFFFF" stroke-opacity=".22" stroke-width="3"/>
</g></g>
  <text x="52" y="250" fill="#FFFFFF" fill-opacity=".90" font-family="Arial, Helvetica, sans-serif" font-size="28" font-weight="600">Performance Waterfall</text>
  <text x="52" y="322" fill="#FFFFFF" fill-opacity=".60" font-family="Arial, Helvetica, sans-serif" font-size="15">ordered cumulative decomposition</text>
</svg>
