<svg xmlns="http://www.w3.org/2000/svg" width="640" height="360" viewBox="0 0 640 360" role="img" aria-labelledby="title desc">
  <title id="title">Interactive Graph Visualizations card</title>
  <desc id="desc">navigation and details on demand</desc>
  <rect width="640" height="360" fill="#FFFFFF"/>
  <rect x="24" y="24" width="592" height="312" rx="14" fill="#FFFFFF" stroke="#000000" stroke-opacity=".15"/>
  <rect x="52" y="52" width="82" height="8" rx="4" fill="#03DAC6"/>
  <text x="52" y="94" fill="#03DAC6" font-family="Arial, Helvetica, sans-serif" font-size="14" font-weight="700" letter-spacing="2">18 · GRAPH</text>
  <g><g stroke-linecap="round" stroke-linejoin="round">
  <rect x="68" y="108" width="298" height="104" rx="8" fill="#000000" fill-opacity=".04" stroke="#000000" stroke-opacity=".18"/><line x1="112" y1="168" x2="188" y2="128" stroke="#03DAC6" stroke-width="3"/><line x1="188" y1="128" x2="268" y2="174" stroke="#6200EE" stroke-width="4"/><line x1="188" y1="128" x2="318" y2="136" stroke="#03DAC6" stroke-width="3"/><circle cx="112" cy="168" r="12" fill="#6200EE"/><circle cx="188" cy="128" r="18" fill="#03DAC6"/><circle cx="268" cy="174" r="13" fill="#6200EE"/><circle cx="318" cy="136" r="11" fill="#03DAC6"/><circle cx="188" cy="128" r="27" fill="none" stroke="#6200EE" stroke-width="4" stroke-dasharray="6 5"/>
  <rect x="390" y="108" width="180" height="104" rx="8" fill="#6200EE" fill-opacity=".08" stroke="#6200EE" stroke-width="3"/><circle cx="420" cy="140" r="14" fill="#03DAC6"/><line x1="446" y1="132" x2="546" y2="132" stroke="#000000" stroke-opacity=".5" stroke-width="4"/><line x1="410" y1="170" x2="548" y2="170" stroke="#000000" stroke-opacity=".24" stroke-width="3"/><line x1="410" y1="190" x2="520" y2="190" stroke="#000000" stroke-opacity=".24" stroke-width="3"/>
</g></g>
  <text x="52" y="250" fill="#000000" fill-opacity=".90" font-family="Arial, Helvetica, sans-serif" font-size="28" font-weight="600">Interactive Graph</text><text x="52" y="280" fill="#000000" fill-opacity=".90" font-family="Arial, Helvetica, sans-serif" font-size="28" font-weight="600">Visualizations</text>
  <text x="52" y="322" fill="#000000" fill-opacity=".60" font-family="Arial, Helvetica, sans-serif" font-size="15">navigation and details on demand</text>
</svg>
