<svg xmlns="http://www.w3.org/2000/svg" width="640" height="360" viewBox="0 0 640 360" role="img" aria-labelledby="title desc">
  <title id="title">Graph Layouts card</title>
  <desc id="desc">force, hierarchy, radial, circular</desc>
  <rect width="640" height="360" fill="#FFFFFF"/>
  <rect x="24" y="24" width="592" height="312" rx="14" fill="#FFFFFF" stroke="#000000" stroke-opacity=".15"/>
  <rect x="52" y="52" width="82" height="8" rx="4" fill="#03DAC6"/>
  <text x="52" y="94" fill="#03DAC6" font-family="Arial, Helvetica, sans-serif" font-size="14" font-weight="700" letter-spacing="2">19 · GRAPH</text>
  <g><g stroke-linecap="round" stroke-linejoin="round">
  <rect x="68" y="108" width="116" height="100" rx="7" fill="#000000" fill-opacity=".04" stroke="#000000" stroke-opacity=".18"/><line x1="92" y1="176" x2="126" y2="126" stroke="#03DAC6" stroke-width="3"/><line x1="126" y1="126" x2="158" y2="172" stroke="#6200EE" stroke-width="3"/><circle cx="92" cy="176" r="8" fill="#6200EE"/><circle cx="126" cy="126" r="11" fill="#03DAC6"/><circle cx="158" cy="172" r="8" fill="#6200EE"/>
  <rect x="198" y="108" width="116" height="100" rx="7" fill="#000000" fill-opacity=".04" stroke="#000000" stroke-opacity=".18"/><line x1="256" y1="124" x2="226" y2="160" stroke="#03DAC6" stroke-width="3"/><line x1="256" y1="124" x2="286" y2="160" stroke="#03DAC6" stroke-width="3"/><circle cx="256" cy="124" r="10" fill="#03DAC6"/><circle cx="226" cy="160" r="8" fill="#6200EE"/><circle cx="286" cy="160" r="8" fill="#6200EE"/>
  <rect x="328" y="108" width="116" height="100" rx="7" fill="#000000" fill-opacity=".04" stroke="#000000" stroke-opacity=".18"/><line x1="386" y1="158" x2="350" y2="126" stroke="#6200EE" stroke-width="3"/><line x1="386" y1="158" x2="422" y2="126" stroke="#6200EE" stroke-width="3"/><line x1="386" y1="158" x2="386" y2="194" stroke="#03DAC6" stroke-width="3"/><circle cx="386" cy="158" r="12" fill="#03DAC6"/><circle cx="350" cy="126" r="8" fill="#6200EE"/><circle cx="422" cy="126" r="8" fill="#6200EE"/><circle cx="386" cy="194" r="8" fill="#6200EE"/>
  <rect x="458" y="108" width="116" height="100" rx="7" fill="#000000" fill-opacity=".04" stroke="#000000" stroke-opacity=".18"/><circle cx="516" cy="158" r="34" fill="none" stroke="#000000" stroke-opacity=".25" stroke-width="3"/><circle cx="516" cy="124" r="8" fill="#6200EE"/><circle cx="550" cy="158" r="8" fill="#03DAC6"/><circle cx="516" cy="192" r="8" fill="#6200EE"/><circle cx="482" cy="158" r="8" fill="#03DAC6"/>
</g></g>
  <text x="52" y="250" fill="#000000" fill-opacity=".90" font-family="Arial, Helvetica, sans-serif" font-size="28" font-weight="600">Graph Layouts</text>
  <text x="52" y="322" fill="#000000" fill-opacity=".60" font-family="Arial, Helvetica, sans-serif" font-size="15">force, hierarchy, radial, circular</text>
</svg>
