<svg xmlns="http://www.w3.org/2000/svg" width="1200" height="620" viewBox="0 0 1200 620" role="img" aria-labelledby="title desc">
  <title id="title">Portfolio comparison tile preview</title>
  <desc id="desc">Three dark comparison tiles for Alpha Growth, Beta Income, and Gamma Global with one-year return, volatility, benchmark, holdings, and expense ratio.</desc>
  <rect width="1200" height="620" fill="#121212"/>
  <text x="48" y="62" fill="#03dac6" font-family="Arial" font-size="16" font-weight="700" letter-spacing="2">EXAMPLE 01 · NORMALIZED COMPARISON</text>
  <text x="48" y="108" fill="#ffffff" fill-opacity=".87" font-family="Arial" font-size="42" font-weight="600">Portfolio comparison tiles</text>
  <g font-family="Arial">
    <rect x="48" y="146" width="348" height="390" rx="12" fill="#1e1e1e" stroke="#ffffff" stroke-opacity=".16"/>
    <rect x="426" y="146" width="348" height="390" rx="12" fill="#1e1e1e" stroke="#ffffff" stroke-opacity=".16"/>
    <rect x="804" y="146" width="348" height="390" rx="12" fill="#1e1e1e" stroke="#ffffff" stroke-opacity=".16"/>
    <g fill="#bb86fc" font-size="14" font-weight="700" letter-spacing="1.5"><text x="72" y="180">ALFA</text><text x="450" y="180">BETA</text><text x="828" y="180">GAMM</text></g>
    <g fill="#ffffff" fill-opacity=".87" font-size="21" font-weight="600"><text x="72" y="210">Alpha Growth</text><text x="450" y="210">Beta Income</text><text x="828" y="210">Gamma Global</text></g>
    <g fill="#ffffff" fill-opacity=".60" font-size="13"><text x="72" y="232">Technology</text><text x="450" y="232">Utilities</text><text x="828" y="232">Multi-sector</text></g>
    <g fill="#03dac6" font-size="25" font-weight="700" text-anchor="end"><text x="372" y="192">+18.4%</text><text x="750" y="192">+9.1%</text><text x="1128" y="192">+13.7%</text></g>
    <g fill="#ffffff" fill-opacity=".60" font-size="12" text-anchor="end"><text x="372" y="211">1Y return</text><text x="750" y="211">1Y return</text><text x="1128" y="211">1Y return</text></g>
    <g fill="#252525"><rect x="72" y="256" width="300" height="76" rx="8"/><rect x="450" y="256" width="300" height="76" rx="8"/><rect x="828" y="256" width="300" height="76" rx="8"/></g>
    <g fill="none" stroke="#03dac6" stroke-width="3" stroke-linecap="round" stroke-linejoin="round"><polyline points="82,315 124,305 166,310 208,292 250,298 292,280 334,270 362,264"/><polyline points="460,302 502,305 544,298 586,301 628,292 670,286 712,284 740,278"/><polyline points="838,310 880,302 922,305 964,295 1006,300 1048,290 1090,282 1118,274"/></g>
    <g fill="#ffffff" fill-opacity=".60" font-size="12"><text x="72" y="365">Volatility</text><text x="222" y="365">Benchmark</text><text x="72" y="438">Holdings</text><text x="222" y="438">Expense ratio</text><text x="450" y="365">Volatility</text><text x="600" y="365">Benchmark</text><text x="450" y="438">Holdings</text><text x="600" y="438">Expense ratio</text><text x="828" y="365">Volatility</text><text x="978" y="365">Benchmark</text><text x="828" y="438">Holdings</text><text x="978" y="438">Expense ratio</text></g>
    <g fill="#ffffff" fill-opacity=".87" font-size="16" font-weight="600"><text x="72" y="389">22.1%</text><text x="222" y="389">+12.0%</text><text x="72" y="462">48</text><text x="222" y="462">0.35%</text><text x="450" y="389">10.8%</text><text x="600" y="389">+7.4%</text><text x="450" y="462">36</text><text x="600" y="462">0.22%</text><text x="828" y="389">16.4%</text><text x="978" y="389">+12.0%</text><text x="828" y="462">82</text><text x="978" y="462">0.48%</text></g>
    <g fill="#bb86fc"><rect x="72" y="400" width="116" height="7" rx="4"/><rect x="450" y="400" width="57" height="7" rx="4"/><rect x="828" y="400" width="86" height="7" rx="4"/></g>
    <g fill="#03dac6"><rect x="222" y="400" width="180" height="7" rx="4"/><rect x="600" y="400" width="111" height="7" rx="4"/><rect x="978" y="400" width="180" height="7" rx="4"/></g>
    <g fill="#bb86fc"><rect x="72" y="473" width="144" height="7" rx="4"/><rect x="450" y="473" width="108" height="7" rx="4"/><rect x="828" y="473" width="246" height="7" rx="4"/></g>
    <g fill="#cf6679"><rect x="222" y="473" width="105" height="7" rx="4"/><rect x="600" y="473" width="66" height="7" rx="4"/><rect x="978" y="473" width="144" height="7" rx="4"/></g>
  </g>
</svg>
